<svg width="492" height="118" viewBox="0 0 492 118" fill="none" xmlns="http://www.w3.org/2000/svg">
<path d="M0 4.80332C0 3.14646 1.34315 1.80332 3 1.80332H39.7718C55.2645 1.80332 66.7542 4.12935 74.2406 8.7814C81.7791 13.3812 85.5483 20.5683 85.5483 30.3429C85.5483 36.7721 83.9106 42.2605 80.6353 46.808C77.4387 51.2461 73.2518 54.1409 68.0744 55.4923C67.8494 55.551 67.69 55.753 67.69 55.9856C67.69 56.2143 67.8449 56.4144 68.0654 56.475C74.9421 58.3671 79.9379 61.4695 83.0528 65.7821C86.2241 70.1728 87.8098 75.8702 87.8098 82.8744C87.8098 93.2762 83.9106 101.483 76.1122 107.494C68.3658 113.452 57.786 116.432 44.3728 116.432H3C1.34314 116.432 0 115.089 0 113.432V4.80332ZM30.8036 42.7887C30.8036 44.4456 32.1468 45.7887 33.8036 45.7887H40.0837C44.5028 45.7887 47.9081 44.874 50.2996 43.0445C52.7431 41.2151 53.9648 38.497 53.9648 34.8904C53.9648 28.4611 49.1298 25.2465 39.4598 25.2465H33.8036C32.1468 25.2465 30.8036 26.5897 30.8036 28.2465V42.7887ZM33.8036 68.4478C32.1468 68.4478 30.8036 69.791 30.8036 71.4478V89.5183C30.8036 91.1751 32.1468 92.5183 33.8036 92.5183H41.6434C51.2614 92.5183 56.0704 88.4412 56.0704 80.287C56.0704 76.4713 54.7707 73.5442 52.1712 71.5056C49.6237 69.4671 45.9065 68.4478 41.0195 68.4478H33.8036Z" fill="white"/>
<path d="M214.3 58.9608C214.3 78.2485 209.595 92.9103 200.185 102.946C190.774 112.982 176.997 118 158.853 118C140.969 118 127.244 112.956 117.678 102.868C108.164 92.7796 103.407 78.0917 103.407 58.804C103.407 39.7254 108.138 25.1681 117.6 15.1322C127.114 5.04408 140.917 0 159.009 0C177.153 0 190.904 4.99181 200.262 14.9754C209.621 24.959 214.3 39.6208 214.3 58.9608ZM135.848 58.9608C135.848 81.1234 143.516 92.2047 158.853 92.2047C166.651 92.2047 172.422 89.5127 176.165 84.1289C179.961 78.7451 181.858 70.3557 181.858 58.9608C181.858 47.5136 179.935 39.072 176.088 33.6359C172.292 28.1475 166.599 25.4033 159.009 25.4033C143.568 25.4033 135.848 36.5891 135.848 58.9608Z" fill="white"/>
<path d="M341.569 58.9608C341.569 78.2485 336.864 92.9103 327.454 102.946C318.044 112.982 304.267 118 286.123 118C268.238 118 254.513 112.956 244.947 102.868C235.433 92.7796 230.676 78.0917 230.676 58.804C230.676 39.7254 235.407 25.1681 244.869 15.1322C254.383 5.04408 268.186 0 286.279 0C304.423 0 318.174 4.99181 327.532 14.9754C336.89 24.959 341.569 39.6208 341.569 58.9608ZM263.117 58.9608C263.117 81.1234 270.786 92.2047 286.123 92.2047C293.921 92.2047 299.692 89.5127 303.435 84.1289C307.23 78.7451 309.128 70.3557 309.128 58.9608C309.128 47.5136 307.204 39.072 303.357 33.6359C299.562 28.1475 293.869 25.4033 286.279 25.4033C270.838 25.4033 263.117 36.5891 263.117 58.9608Z" fill="white"/>
<path d="M414.103 116.432C412.76 116.432 411.581 115.54 411.216 114.247L388.594 34.1493C388.548 33.9847 388.397 33.8711 388.226 33.8711C388.004 33.8711 387.828 34.0627 387.846 34.2847C388.916 48.1462 389.451 58.9328 389.451 66.6445V113.432C389.451 115.089 388.108 116.432 386.451 116.432H365.157C363.5 116.432 362.157 115.089 362.157 113.432V4.80332C362.157 3.14646 363.5 1.80332 365.157 1.80332H400.928C402.26 1.80332 403.433 2.68254 403.807 3.96176L426.874 82.8895C426.926 83.0664 427.088 83.188 427.273 83.188C427.458 83.188 427.621 83.0654 427.672 82.8873L450.28 3.97705C450.648 2.69019 451.825 1.80332 453.164 1.80332H489C490.657 1.80332 492 3.14647 492 4.80332V113.432C492 115.089 490.657 116.432 489 116.432H466.692C465.035 116.432 463.692 115.089 463.692 113.432V66.1741C463.692 63.5606 463.718 60.6596 463.77 57.4711C463.873 54.3178 464.23 46.6401 464.841 34.4381C464.852 34.2166 464.676 34.0279 464.454 34.0279C464.28 34.0279 464.127 34.1438 464.081 34.3113L441.767 114.239C441.405 115.535 440.224 116.432 438.877 116.432H414.103Z" fill="white"/>
</svg>
