<svg width="492" height="97" viewBox="0 0 492 97" fill="none" xmlns="http://www.w3.org/2000/svg">
<path d="M0 4.35529C0 2.69843 1.34315 1.35529 3 1.35529H32.8774C45.6845 1.35529 55.1824 3.2699 61.3711 7.09913C67.6027 10.8853 70.7186 16.8013 70.7186 24.847C70.7186 30.1391 69.3648 34.6567 66.6572 38.3999C64.0145 42.0534 60.553 44.4363 56.2725 45.5485C56.0873 45.5966 55.956 45.7628 55.956 45.9542C55.956 46.1424 56.0836 46.307 56.2651 46.3568C61.9503 47.9142 66.0805 50.4679 68.6557 54.018C71.2772 57.6321 72.5881 62.3218 72.5881 68.0872C72.5881 76.6491 69.3648 83.4041 62.9182 88.352C56.5147 93.2568 47.7689 95.7092 36.6808 95.7092H3C1.34315 95.7092 0 94.3661 0 92.7092V4.35529ZM25.4638 34.5609C25.4638 36.2177 26.807 37.5609 28.4638 37.5609H33.1352C36.7883 37.5609 39.6032 36.8079 41.5802 35.3021C43.6001 33.7962 44.6101 31.5589 44.6101 28.5902C44.6101 23.2981 40.6132 20.652 32.6195 20.652H28.4638C26.807 20.652 25.4638 21.9952 25.4638 23.652V34.5609ZM28.4638 56.2122C26.807 56.2122 25.4638 57.5554 25.4638 59.2122V73.0253C25.4638 74.6821 26.807 76.0253 28.4638 76.0253H34.4245C42.3753 76.0253 46.3506 72.6693 46.3506 65.9574C46.3506 62.8166 45.2762 60.4072 43.1274 58.7292C41.0215 57.0512 37.9486 56.2122 33.9088 56.2122H28.4638Z" fill="white"/>
<path d="M117.426 61.3752C115.769 61.3752 114.426 62.7184 114.426 64.3752V92.7092C114.426 94.3661 113.083 95.7092 111.426 95.7092H91.9623C90.3054 95.7092 88.9623 94.3661 88.9623 92.7092V4.35529C88.9623 2.69843 90.3054 1.35529 91.9623 1.35529H119.841C145.455 1.35529 158.263 10.6487 158.263 29.2355C158.263 39.1728 153.856 47.0645 145.043 52.9106C143.586 53.8772 143.105 55.8409 144.076 57.2949L166.62 91.0428C167.952 93.0363 166.523 95.7092 164.126 95.7092H142.582C141.514 95.7092 140.526 95.1414 139.989 94.2184L121.74 62.8661C121.203 61.9431 120.216 61.3752 119.148 61.3752H117.426ZM114.426 39.2076C114.426 40.8644 115.769 42.2076 117.426 42.2076H119.197C128.093 42.2076 132.541 38.2708 132.541 30.3972C132.541 23.9004 128.179 20.652 119.454 20.652H117.426C115.769 20.652 114.426 21.9952 114.426 23.652V39.2076Z" fill="white"/>
<path d="M238.451 95.7092C237.087 95.7092 235.895 94.7897 235.549 93.4709L232.083 80.2643C231.737 78.9455 230.545 78.0259 229.181 78.0259H203.172C201.816 78.0259 200.629 78.9354 200.276 80.2446L196.702 93.4906C196.349 94.7997 195.162 95.7092 193.806 95.7092H172.254C170.216 95.7092 168.771 93.7213 169.4 91.7831L198.203 3.04192C198.604 1.80539 199.756 0.968064 201.056 0.968064H230.677C231.973 0.968064 233.123 1.80023 233.527 3.0314L262.692 91.7726C263.33 93.7128 261.884 95.7092 259.842 95.7092H238.451ZM222.321 57.1158C224.287 57.1158 225.722 55.2565 225.223 53.3549L222.148 41.6267C221.202 38.1847 220.042 33.7316 218.667 28.2675C218.59 27.9538 218.515 27.6452 218.442 27.3417C217.92 25.1897 214.2 25.2062 213.703 27.3639C212.683 31.9578 210.5 40.6187 207.154 53.3464C206.653 55.25 208.088 57.1158 210.056 57.1158H222.321Z" fill="white"/>
<path d="M277.236 95.7092C275.579 95.7092 274.236 94.3661 274.236 92.7092V4.35529C274.236 2.69843 275.579 1.35529 277.236 1.35529H296.829C298.485 1.35529 299.829 2.69844 299.829 4.35529V92.7092C299.829 94.3661 298.485 95.7092 296.829 95.7092H277.236Z" fill="white"/>
<path d="M410 92.7092C410 94.3661 408.657 95.7092 407 95.7092H378.432C377.311 95.7092 376.283 95.0843 375.768 94.0888L342.278 29.421C342.219 29.3071 342.102 29.2355 341.973 29.2355C341.773 29.2355 341.616 29.4078 341.631 29.6074C342.428 39.8801 342.827 47.7372 342.827 53.179V92.7092C342.827 94.3661 341.484 95.7092 339.827 95.7092H323.264C321.607 95.7092 320.264 94.3661 320.264 92.7092V4.35529C320.264 2.69843 321.607 1.35529 323.264 1.35529H351.712C352.828 1.35529 353.853 1.97544 354.37 2.96488L387.759 66.8013C387.799 66.8776 387.878 66.9255 387.964 66.9255C388.098 66.9255 388.203 66.8116 388.195 66.6782C387.604 57.2845 387.308 49.7299 387.308 44.0146V4.35529C387.308 2.69844 388.651 1.35529 390.308 1.35529H407C408.657 1.35529 410 2.69844 410 4.35529V92.7092Z" fill="white"/>
<path d="M492 67.0546C492 72.906 490.517 78.112 487.552 82.6727C484.586 87.1903 480.31 90.7183 474.723 93.2568C469.136 95.7523 462.582 97 455.061 97C448.787 97 443.522 96.5697 439.267 95.7092C435.545 94.9188 431.691 93.6343 427.706 91.8559C426.65 91.3848 425.987 90.3263 425.987 89.17V73.2597C425.987 71.0151 428.369 69.5546 430.426 70.4529C433.902 71.9707 437.472 73.2258 441.137 74.2182C446.38 75.595 451.193 76.2834 455.577 76.2834C459.359 76.2834 462.131 75.638 463.893 74.3473C465.655 73.0135 466.536 71.314 466.536 69.2488C466.536 67.9581 466.171 66.8394 465.44 65.8929C464.753 64.9033 463.614 63.9137 462.024 62.9241C460.476 61.9346 456.308 59.9124 449.517 56.8576C443.372 54.061 438.752 51.3504 435.657 48.7259C432.606 46.1014 430.328 43.0896 428.824 39.6906C427.363 36.2916 426.632 32.2688 426.632 27.6221C426.632 18.931 429.791 12.1546 436.108 7.29275C442.426 2.43092 451.107 0 462.152 0C471.058 0 480.125 1.88233 489.353 5.647C490.842 6.25446 491.532 7.95634 490.94 9.45139L485.365 23.5194C484.732 25.1178 482.888 25.8522 481.303 25.1853C473.711 21.991 467.07 20.3939 461.379 20.3939C458.07 20.3939 455.663 20.9747 454.159 22.1364C452.655 23.2981 451.902 24.7394 451.902 26.4604C451.902 28.3105 452.848 29.967 454.739 31.4298C456.673 32.8927 461.873 35.5602 470.34 39.4325C478.462 43.0896 484.092 47.0264 487.23 51.2428C490.41 55.4163 492 60.6868 492 67.0546Z" fill="white"/>
</svg>
